<svg width="202" height="48" viewBox="0 0 202 48" fill="none" xmlns="http://www.w3.org/2000/svg">
<path d="M192.544 32.8941V15.4343H187.152V12.082H201.679V15.4343H196.371V32.8941H192.544Z" fill="white"/>
<path d="M181.891 32.8941V12.082H185.69V32.8941H181.891Z" fill="white"/>
<path d="M164.617 32.8941V12.082H172.383C173.799 12.082 175.046 12.3428 176.127 12.8642C177.225 13.3671 178.082 14.112 178.697 15.0991C179.311 16.0675 179.619 17.2501 179.619 18.6469C179.619 20.0251 179.302 21.2077 178.669 22.1947C178.054 23.1632 177.207 23.9081 176.127 24.4296C175.046 24.9511 173.799 25.2118 172.383 25.2118H168.416V32.8941H164.617ZM168.416 21.8595H172.439C173.128 21.8595 173.724 21.7291 174.227 21.4684C174.73 21.1891 175.121 20.8073 175.4 20.323C175.68 19.8388 175.819 19.2801 175.819 18.6469C175.819 17.9951 175.68 17.4364 175.4 16.9708C175.121 16.4866 174.73 16.1141 174.227 15.8533C173.724 15.574 173.128 15.4343 172.439 15.4343H168.416V21.8595Z" fill="white"/>
<path d="M146.492 32.896V12.084H150.291V22.923L149.258 22.5599L158.113 12.084H162.89L154.594 21.9173L154.817 19.2355L163.142 32.896H158.672L153.085 23.7332L150.291 27.0575V32.896H146.492Z" fill="white"/>
<path d="M135.474 33.2306C133.984 33.2306 132.606 32.9605 131.34 32.4204C130.092 31.8803 128.993 31.1261 128.043 30.1576C127.112 29.1892 126.386 28.0532 125.864 26.7495C125.343 25.4458 125.082 24.0211 125.082 22.4753C125.082 20.9296 125.333 19.5048 125.836 18.2012C126.358 16.8789 127.084 15.7428 128.015 14.793C128.965 13.8246 130.073 13.0796 131.34 12.5582C132.606 12.0181 133.984 11.748 135.474 11.748C136.964 11.748 138.296 11.9995 139.469 12.5023C140.661 13.0052 141.666 13.6756 142.486 14.5137C143.305 15.3331 143.892 16.2364 144.246 17.2234L140.838 18.8158C140.447 17.7728 139.785 16.9161 138.854 16.2457C137.923 15.5566 136.796 15.2121 135.474 15.2121C134.17 15.2121 133.016 15.5194 132.01 16.1339C131.023 16.7485 130.25 17.5959 129.691 18.6761C129.151 19.7563 128.881 21.0227 128.881 22.4753C128.881 23.928 129.151 25.2037 129.691 26.3025C130.25 27.3827 131.023 28.2301 132.01 28.8447C133.016 29.4592 134.17 29.7665 135.474 29.7665C136.796 29.7665 137.923 29.4313 138.854 28.7609C139.785 28.0718 140.447 27.2058 140.838 26.1628L144.246 27.7552C143.892 28.7422 143.305 29.6548 142.486 30.4929C141.666 31.3123 140.661 31.9735 139.469 32.4763C138.296 32.9791 136.964 33.2306 135.474 33.2306Z" fill="white"/>
<path d="M112.265 33.2306C110.738 33.2306 109.314 32.9605 107.991 32.4204C106.669 31.8803 105.514 31.1261 104.527 30.1576C103.54 29.1892 102.767 28.0532 102.209 26.7495C101.668 25.4272 101.398 24.0025 101.398 22.4753C101.398 20.9296 101.668 19.5048 102.209 18.2012C102.749 16.8975 103.512 15.7615 104.499 14.793C105.486 13.8246 106.641 13.0796 107.963 12.5582C109.286 12.0181 110.72 11.748 112.265 11.748C113.811 11.748 115.245 12.0181 116.568 12.5582C117.89 13.0983 119.044 13.8525 120.032 14.821C121.019 15.7708 121.782 16.8975 122.322 18.2012C122.881 19.5048 123.16 20.9296 123.16 22.4753C123.16 24.0025 122.881 25.4272 122.322 26.7495C121.764 28.0532 120.991 29.1892 120.004 30.1576C119.017 31.1261 117.862 31.8803 116.54 32.4204C115.236 32.9605 113.811 33.2306 112.265 33.2306ZM112.265 29.7665C113.29 29.7665 114.23 29.5896 115.087 29.2358C115.944 28.8633 116.689 28.3511 117.322 27.6993C117.974 27.0475 118.467 26.2746 118.802 25.3806C119.156 24.4867 119.333 23.5183 119.333 22.4753C119.333 21.4324 119.156 20.4733 118.802 19.598C118.467 18.704 117.974 17.9311 117.322 17.2793C116.689 16.6088 115.944 16.0967 115.087 15.7428C114.23 15.389 113.29 15.2121 112.265 15.2121C111.26 15.2121 110.329 15.389 109.472 15.7428C108.615 16.0967 107.861 16.6088 107.209 17.2793C106.576 17.9311 106.082 18.704 105.728 19.598C105.375 20.4733 105.198 21.4324 105.198 22.4753C105.198 23.5183 105.375 24.4867 105.728 25.3806C106.082 26.2746 106.576 27.0475 107.209 27.6993C107.861 28.3511 108.615 28.8633 109.472 29.2358C110.329 29.5896 111.26 29.7665 112.265 29.7665Z" fill="white"/>
<path d="M90.9936 33.2306C89.5037 33.2306 88.1256 32.9605 86.8592 32.4204C85.6114 31.8803 84.5126 31.1261 83.5627 30.1576C82.6316 29.1892 81.9052 28.0532 81.3838 26.7495C80.8623 25.4458 80.6016 24.0211 80.6016 22.4753C80.6016 20.9296 80.853 19.5048 81.3558 18.2012C81.8773 16.8789 82.6036 15.7428 83.5348 14.793C84.4846 13.8246 85.5927 13.0796 86.8592 12.5582C88.1256 12.0181 89.5037 11.748 90.9936 11.748C92.4835 11.748 93.8151 11.9995 94.9884 12.5023C96.1803 13.0052 97.186 13.6756 98.0055 14.5137C98.8249 15.3331 99.4116 16.2364 99.7654 17.2234L96.3573 18.8158C95.9662 17.7728 95.305 16.9161 94.3738 16.2457C93.4427 15.5566 92.3159 15.2121 90.9936 15.2121C89.69 15.2121 88.5353 15.5194 87.5296 16.1339C86.5425 16.7485 85.7697 17.5959 85.2109 18.6761C84.6709 19.7563 84.4008 21.0227 84.4008 22.4753C84.4008 23.928 84.6709 25.2037 85.2109 26.3025C85.7697 27.3827 86.5425 28.2301 87.5296 28.8447C88.5353 29.4592 89.69 29.7665 90.9936 29.7665C92.3159 29.7665 93.4427 29.4313 94.3738 28.7609C95.305 28.0718 95.9662 27.2058 96.3573 26.1628L99.7654 27.7552C99.4116 28.7422 98.8249 29.6548 98.0055 30.4929C97.186 31.3123 96.1803 31.9735 94.9884 32.4763C93.8151 32.9791 92.4835 33.2306 90.9936 33.2306Z" fill="white"/>
<path d="M74.043 32.8954V28.9844H77.7305V32.8954H74.043Z" fill="white"/>
<path d="M65.6484 32.896V12.084H69.4477V32.896H65.6484Z" fill="white"/>
<path d="M44.8984 32.896L52.0779 12.084H56.9946L64.174 32.896H60.0396L58.559 28.4263H50.5135L49.005 32.896H44.8984ZM51.603 25.0741H57.4695L54.0055 14.7099H55.067L51.603 25.0741Z" fill="white"/>
<path d="M22.4 37.8505L22.3867 19.3931L34.3515 28.6606V47.0732L22.4 37.8505Z" fill="white"/>
<path d="M0 19.3921V37.8047L18.4126 19.3921V0.979492L0 19.3921Z" fill="white"/>
</svg>
